<svg xmlns="http://www.w3.org/2000/svg" width="88" height="88" fill="none" viewBox="0 0 88 88"><defs><radialGradient id="a" cx="50%" cy="45%" r="55%"><stop offset="0%" stop-color="#0d1f3c"/><stop offset="100%" stop-color="#050a14"/></radialGradient><radialGradient id="b" cx="50%" cy="50%" r="50%"><stop offset="0%" stop-color="#e8dcc4" stop-opacity=".4"/><stop offset="100%" stop-color="#e8dcc4" stop-opacity="0"/></radialGradient><linearGradient id="c" x1="0%" x2="100%" y1="0%" y2="0%"><stop offset="0%" stop-color="#d4c8b0"/><stop offset="40%" stop-color="#e8dcc4"/><stop offset="100%" stop-color="#c8bbaa"/></linearGradient></defs><path fill="#050a14" d="M0 0h88v88H0z"/><circle cx="44" cy="44" r="43" fill="url(#a)"/><g transform="translate(0 5)"><circle cx="44" cy="20" r="12" fill="url(#b)"/><path stroke="#e8dcc4" stroke-linecap="round" stroke-width="2" d="M44 20V6" opacity=".5"/><path stroke="#e8dcc4" stroke-linecap="round" stroke-width="1.8" d="M44 20 28 9m16 11L60 9" opacity=".35"/><path stroke="#e8dcc4" stroke-linecap="round" stroke-width="1.5" d="m44 20-30-6m30 6 30-6" opacity=".2"/><path stroke="#e8dcc4" stroke-linejoin="round" stroke-width="2.5" d="M20 14h48v24q0 30-24 40-24-10-24-40Z" opacity=".45"/><circle cx="44" cy="20" r="4" fill="#fff" opacity=".85"/><path fill="#e8dcc4" d="M40 25c0-6 8-6 8 0Z" opacity=".9"/><rect width="9" height="5.5" x="39.5" y="25" fill="#f5f0e6" opacity=".85" rx=".8"/><path stroke="#0a1628" stroke-width=".7" d="M42.5 25v5.5m3-5.5v5.5" opacity=".3"/><rect width="16" height="3" x="36" y="30.5" fill="#e8dcc4" opacity=".85" rx="1.2"/><path fill="url(#c)" d="M38.5 33.5h11L52 60H36Z" opacity=".8"/><path stroke="#0d1f3c" stroke-width="1.8" d="M37.8 43h12.7M37 52h14.3" opacity=".35"/><rect width="22" height="4" x="33" y="60" fill="#e8dcc4" opacity=".7" rx="2"/><rect width="28" height="4" x="30" y="64" fill="#e8dcc4" opacity=".45" rx="2"/></g></svg>