<svg xmlns="http://www.w3.org/2000/svg" width="16" height="16" fill="none" viewBox="0 0 16 16"><desc>Usdc Streamline Icon: https://streamlinehq.com</desc><path fill="#3e73c4" d="M8 16A8 8 0 1 0 8 0a8 8 0 0 0 0 16"/><path fill="#fff" d="M10.011 9.062c0-1.062-.64-1.426-1.92-1.578-.914-.122-1.096-.364-1.096-.789s.305-.698.914-.698c.548 0 .853.182 1.005.638a.23.23 0 0 0 .214.151h.487a.21.21 0 0 0 .214-.212v-.03a1.52 1.52 0 0 0-1.372-1.245v-.728c0-.121-.091-.212-.243-.243h-.458c-.121 0-.213.091-.243.243v.698c-.915.121-1.493.728-1.493 1.487 0 1.001.609 1.396 1.889 1.548.853.151 1.127.333 1.127.819s-.426.819-1.005.819c-.793 0-1.067-.333-1.158-.789-.03-.121-.122-.182-.214-.182h-.518a.207.207 0 0 0-.213.212v.03c.122.76.61 1.305 1.615 1.457v.729c0 .121.092.213.244.243h.457c.122 0 .213-.092.244-.243v-.729c.914-.151 1.523-.789 1.523-1.608"/><path fill="#fff" d="M6.446 12.249c-2.377-.85-3.596-3.49-2.712-5.827a4.5 4.5 0 0 1 2.712-2.701c.122-.06.183-.152.183-.304v-.425c0-.12-.061-.212-.183-.242-.03 0-.091 0-.122.03a5.45 5.45 0 0 0-3.565 6.859 5.47 5.47 0 0 0 3.565 3.55c.122.061.244 0 .274-.121.03-.03.03-.061.03-.121v-.425c0-.091-.09-.212-.182-.273m3.23-9.468c-.122-.062-.244 0-.274.12-.03.031-.03.062-.03.122v.425c0 .122.09.243.182.304 2.377.85 3.596 3.49 2.712 5.826a4.5 4.5 0 0 1-2.712 2.701c-.122.06-.182.152-.182.304v.424c0 .122.06.213.182.243.03 0 .092 0 .122-.03a5.447 5.447 0 0 0 3.565-6.858A5.51 5.51 0 0 0 9.676 2.78"/></svg>