<svg width="427" height="427" viewBox="0 0 427 427" fill="none" xmlns="http://www.w3.org/2000/svg">
<circle cx="213.5" cy="213.5" r="212.345" fill="#6BA256" stroke="#516D4F" stroke-width="2.31"/>
<circle opacity="0.4" cx="213.5" cy="213.5" r="143.629" fill="#49603F" stroke="#291E45" stroke-width="2"/>
<path d="M198.065 198.526C198.065 198.331 198.065 198.234 198.028 198.159C197.994 198.094 197.941 198.041 197.876 198.007C197.801 197.97 197.704 197.97 197.509 197.97L159.423 197.97C159.228 197.97 159.131 197.97 159.056 197.932C158.991 197.898 158.938 197.845 158.905 197.78C158.867 197.705 158.867 197.608 158.867 197.413L158.867 170.109C158.867 169.914 158.867 169.817 158.905 169.743C158.938 169.677 158.991 169.624 159.056 169.591C159.131 169.553 159.228 169.553 159.423 169.553L222.003 169.553C222.198 169.553 222.295 169.553 222.369 169.515C222.435 169.482 222.488 169.429 222.521 169.363C222.559 169.289 222.559 169.191 222.559 168.997L222.559 113.537C222.559 113.343 222.559 113.245 222.521 113.171C222.488 113.105 222.435 113.052 222.369 113.019C222.295 112.981 222.198 112.981 222.003 112.981L198.622 112.981C198.427 112.981 198.33 112.981 198.255 113.019C198.19 113.052 198.137 113.105 198.103 113.171C198.065 113.245 198.065 113.343 198.065 113.537L198.065 140.82C198.065 141.015 198.065 141.112 198.028 141.187C197.994 141.252 197.941 141.305 197.876 141.339C197.801 141.376 197.704 141.376 197.509 141.376L134.406 141.376C134.211 141.376 134.114 141.376 134.039 141.414C133.974 141.448 133.921 141.501 133.887 141.566C133.85 141.641 133.85 141.738 133.85 141.933L133.85 207.065C133.85 207.15 133.85 207.192 133.859 207.232C133.868 207.267 133.881 207.301 133.9 207.332C133.922 207.367 133.952 207.397 134.011 207.457L152.299 225.871C152.359 225.932 152.389 225.962 152.424 225.984C152.455 226.003 152.489 226.017 152.525 226.025C152.565 226.035 152.608 226.035 152.693 226.035L197.509 226.035C197.704 226.035 197.801 226.035 197.876 225.997C197.941 225.964 197.994 225.911 198.028 225.845C198.065 225.771 198.065 225.674 198.065 225.479L198.065 198.526Z" fill="#FEFFFF"/>
<path d="M267.964 253.896C267.964 254.091 267.964 254.188 267.927 254.262C267.893 254.328 267.84 254.381 267.775 254.414C267.7 254.452 267.603 254.452 267.408 254.452L198.622 254.452C198.427 254.452 198.33 254.452 198.255 254.49C198.19 254.523 198.137 254.577 198.103 254.642C198.065 254.716 198.065 254.814 198.065 255.008L198.065 282.629L198.065 310.27C198.065 310.465 198.065 310.562 198.103 310.636C198.137 310.702 198.19 310.755 198.255 310.788C198.33 310.826 198.427 310.826 198.622 310.826L222.003 310.826C222.198 310.826 222.295 310.826 222.369 310.788C222.435 310.755 222.488 310.702 222.521 310.636C222.559 310.562 222.559 310.465 222.559 310.27L222.559 283.185C222.559 282.99 222.559 282.893 222.597 282.818C222.63 282.753 222.683 282.7 222.749 282.666C222.823 282.629 222.92 282.629 223.115 282.629L290.996 282.629C291.191 282.629 291.288 282.629 291.362 282.591C291.428 282.557 291.481 282.504 291.514 282.439C291.552 282.364 291.552 282.267 291.552 282.072L291.552 217.558C291.552 217.473 291.552 217.431 291.543 217.391C291.534 217.356 291.52 217.323 291.502 217.292C291.48 217.257 291.451 217.227 291.391 217.167L272.562 198.135C272.502 198.074 272.472 198.043 272.437 198.022C272.405 198.002 272.371 197.988 272.336 197.98C272.295 197.97 272.253 197.97 272.167 197.97L223.115 197.97C222.92 197.97 222.823 197.97 222.749 198.008C222.683 198.041 222.63 198.094 222.597 198.16C222.559 198.234 222.559 198.331 222.559 198.526L222.559 225.479C222.559 225.674 222.559 225.771 222.597 225.846C222.63 225.911 222.683 225.964 222.749 225.997C222.823 226.035 222.92 226.035 223.115 226.035L267.408 226.035C267.603 226.035 267.7 226.035 267.775 226.073C267.84 226.107 267.893 226.16 267.927 226.225C267.964 226.299 267.964 226.397 267.964 226.591L267.964 253.896Z" fill="#FEFFFF"/>
</svg>
