<svg xmlns="http://www.w3.org/2000/svg" width="256" height="256" viewBox="0 0 256 256"><title>DOC_Section</title><g fill="#00c76a"><path d="M64.087 93.474a35 35 0 0 1 17.288 4.216 30.04 30.04 0 0 1 11.708 11.656 36.42 36.42 0 0 1 0 33.826 29.9 29.9 0 0 1-11.708 11.657 34.8 34.8 0 0 1-17.288 4.215H39.459v-65.57zm11.468 46.37a21.3 21.3 0 0 0 4.08-13.653 21.3 21.3 0 0 0-4.08-13.653 13.79 13.79 0 0 0-11.468-5.12H56.68v37.546h7.407a13.79 13.79 0 0 0 11.468-5.12m27.733 8.056a27.77 27.77 0 0 1 0-26.044 21.8 21.8 0 0 1 9.182-8.67 33.37 33.37 0 0 1 27.818 0 21.83 21.83 0 0 1 9.165 8.67 27.77 27.77 0 0 1 0 26.044 21.83 21.83 0 0 1-9.165 8.67 33.37 33.37 0 0 1-27.818 0 21.8 21.8 0 0 1-9.182-8.67m32.921-13.073c.15-3.065-.78-6.084-2.628-8.534a9.643 9.643 0 0 0-14.421 0 15.36 15.36 0 0 0 0 17.067 9.643 9.643 0 0 0 14.421 0 13.1 13.1 0 0 0 2.628-8.533m34.458-37.786a35 35 0 0 1 17.373-4.13 30.9 30.9 0 0 1 14.234 3.191 25.6 25.6 0 0 1 10.035 8.858 26.8 26.8 0 0 1 4.438 12.97h-17.238a13.76 13.76 0 0 0-4.164-7.833 11.55 11.55 0 0 0-8.107-2.935 11.95 11.95 0 0 0-10.342 5.24 23.5 23.5 0 0 0-3.789 13.891 23.5 23.5 0 0 0 3.704 13.859 11.95 11.95 0 0 0 10.342 5.256c2.982.098 5.886-.96 8.107-2.952a13.65 13.65 0 0 0 4.164-7.817h17.323a26.95 26.95 0 0 1-4.301 12.97 25.7 25.7 0 0 1-10.035 8.841 30.9 30.9 0 0 1-14.234 3.192 35 35 0 0 1-17.51-4.165 27.9 27.9 0 0 1-11.282-11.605 37.34 37.34 0 0 1-3.89-17.579 37.34 37.34 0 0 1 3.942-17.612 28 28 0 0 1 11.23-11.64"/><path d="M128 22.187a105.37 105.37 0 1 1-41.164 8.311 105.1 105.1 0 0 1 41.165-8.311m0-14.934A120.713 120.713 0 1 0 248.714 128 120.713 120.713 0 0 0 128.001 7.288z"/></g></svg>