<svg xmlns="http://www.w3.org/2000/svg" width="336" height="267" fill="none" viewBox="0 0 336 267"><path fill="url(#a)" d="M335.651 132.836 271.385 68.57l-64.266 64.266 64.266 64.266z"/><path fill="url(#b)" d="M197.261 134.136 64.747 266.65 2.309 204.212 134.823 71.698z"/><path fill="url(#c)" d="M266.937 64.798 202.672.532l-64.266 64.266 64.266 64.266z"/><path fill="url(#d)" d="m266.937 202.384-64.265-64.266-64.266 64.266 64.266 64.266z"/><path fill="url(#e)" d="M128.833 65.798 64.567 1.532.301 65.798l64.266 64.266z"/><defs><linearGradient id="a" x1="23.901" x2="312.052" y1=".532" y2="266.65" gradientUnits="userSpaceOnUse"><stop stop-color="#ffc966"/><stop offset="1" stop-color="#674e20"/></linearGradient><linearGradient id="b" x1="23.901" x2="312.052" y1=".532" y2="266.65" gradientUnits="userSpaceOnUse"><stop stop-color="#ffc966"/><stop offset="1" stop-color="#674e20"/></linearGradient><linearGradient id="c" x1="23.901" x2="312.052" y1=".532" y2="266.65" gradientUnits="userSpaceOnUse"><stop stop-color="#ffc966"/><stop offset="1" stop-color="#674e20"/></linearGradient><linearGradient id="d" x1="23.901" x2="312.052" y1=".532" y2="266.65" gradientUnits="userSpaceOnUse"><stop stop-color="#ffc966"/><stop offset="1" stop-color="#674e20"/></linearGradient><linearGradient id="e" x1="23.901" x2="312.052" y1=".532" y2="266.65" gradientUnits="userSpaceOnUse"><stop stop-color="#ffc966"/><stop offset="1" stop-color="#674e20"/></linearGradient></defs></svg>