<svg xmlns="http://www.w3.org/2000/svg" viewBox="0 0 64 64"><defs><linearGradient id="a" x1="0%" x2="100%" y1="0%" y2="100%"><stop offset="0%" style="stop-color:#1a3a5c"/><stop offset="100%" style="stop-color:#0d1f3c"/></linearGradient><linearGradient id="c" x1="0%" x2="100%" y1="0%" y2="100%"><stop offset="0%" style="stop-color:#f5d76e"/><stop offset="100%" style="stop-color:#d4a830"/></linearGradient><linearGradient id="b" x1="0%" x2="100%" y1="0%" y2="100%"><stop offset="0%" style="stop-color:#c49a2a"/><stop offset="100%" style="stop-color:#a67c1a"/></linearGradient></defs><circle cx="32" cy="32" r="30" fill="url(#a)" stroke="#d4a830" stroke-opacity=".4" stroke-width="1.5"/><path fill="#d4a830" fill-opacity=".7" d="m32 16 .8 2.5h2.7l-2.2 1.7.9 2.6L32 21l-2.2 1.8.9-2.6-2.2-1.7h2.7z"/><path fill="url(#b)" d="M-11 2h22v6h-22z" transform="translate(32 38)"/><path fill="url(#c)" d="m-11 2 3-4h20l-1 4z" transform="translate(32 38)"/><path fill="#a67c1a" fill-opacity=".7" d="m43 40 1-4v6l-1 4z"/><path fill="url(#b)" d="M-7-4H7v6H-7z" transform="translate(32 38)"/><path fill="url(#c)" d="m-7-4 3-4h14L7-4z" transform="translate(32 38)"/><path fill="#a67c1a" fill-opacity=".7" d="m39 34 3-4v6l-3 4z"/></svg>