<svg viewBox="0 0 64 64" xmlns="http://www.w3.org/2000/svg">
  <defs>
    <linearGradient id="pg4Bg" x1="0%" y1="0%" x2="100%" y2="100%">
      <stop offset="0%" style="stop-color:#1a3a5c"/>
      <stop offset="100%" style="stop-color:#0d1f3c"/>
    </linearGradient>
    <linearGradient id="pg4Accent" x1="0%" y1="0%" x2="100%" y2="100%">
      <stop offset="0%" style="stop-color:#F5D76E"/>
      <stop offset="100%" style="stop-color:#D4A830"/>
    </linearGradient>
    <linearGradient id="pg4Dark" x1="0%" y1="0%" x2="100%" y2="100%">
      <stop offset="0%" style="stop-color:#C49A2A"/>
      <stop offset="100%" style="stop-color:#A67C1A"/>
    </linearGradient>
  </defs>

  <!-- Background circle -->
  <circle cx="32" cy="32" r="30" fill="url(#pg4Bg)" stroke="#D4A830" stroke-width="1.5" stroke-opacity="0.4"/>

  <!-- Small star above -->
  <polygon points="32,16 32.8,18.5 35.5,18.5 33.3,20.2 34.2,22.8 32,21 29.8,22.8 30.7,20.2 28.5,18.5 31.2,18.5" fill="#D4A830" fill-opacity="0.7"/>

  <!-- Stacked gold bars (3 bars) -->
  <g transform="translate(32, 38)">
    <!-- Bottom bar -->
    <polygon points="-11,2 11,2 11,8 -11,8" fill="url(#pg4Dark)"/>
    <polygon points="-11,2 -8,-2 12,-2 11,2" fill="url(#pg4Accent)"/>
    <polygon points="11,2 12,-2 12,4 11,8" fill="#A67C1A" fill-opacity="0.7"/>
    <!-- Top bar (offset) -->
    <polygon points="-7,-4 7,-4 7,2 -7,2" fill="url(#pg4Dark)"/>
    <polygon points="-7,-4 -4,-8 10,-8 7,-4" fill="url(#pg4Accent)"/>
    <polygon points="7,-4 10,-8 10,-2 7,2" fill="#A67C1A" fill-opacity="0.7"/>
  </g>
</svg>
