<svg xmlns="http://www.w3.org/2000/svg" width="40" height="40" fill="none" viewBox="0 0 40 40"><path fill="url(#a)" d="M19.161 39.926c10.551 0 19.105-8.91 19.105-19.9C38.266 9.035 29.712.125 19.16.125S.057 9.035.057 20.025c0 10.991 8.553 19.901 19.104 19.901"/><path fill="#fff" d="M11.85 25.26H9.13c.223 4.421 3.774 8.265 10.071 8.265 6.27 0 10.265-3.583 10.265-8.207 0-8.785-12.734-8.294-12.734-13.38 0-1.416 1.027-3.092 3.413-3.092 2.663 0 5.797 2.168 6.02 4.942h2.69c-.277-4.48-4.466-7.6-9.792-7.6-5.521 0-9.682 3.352-9.682 8.09 0 9.046 12.733 7.861 12.733 13.439 0 1.733-1.026 3.178-3.606 3.178-3.218 0-6.464-2.34-6.658-5.635m2.274-12.657c0 6.878 12.623 5.52 12.623 12.86 0 2.196-1.387 4.132-3.052 4.623.583-.578 1.027-1.85 1.027-3.063 0-6.791-12.65-5.866-12.65-12.83 0-2.341 1.442-4.22 3.245-4.798-.693.867-1.193 1.994-1.193 3.208"/><defs><radialGradient id="a" cx="0" cy="0" r="1" gradientTransform="matrix(0 -61.9902 59.5106 0 19.161 62.115)" gradientUnits="userSpaceOnUse"><stop stop-color="#fdc079"/><stop offset="1" stop-color="#ec63da"/></radialGradient></defs></svg>