<svg xmlns="http://www.w3.org/2000/svg" width="100" height="100" fill="none" viewBox="0 0 100 100"><g clip-path="url(#a)"><circle cx="50" cy="50" r="50" fill="#000"/><g fill="#fff" clip-path="url(#b)"><path d="M75.9 50a45 45 0 0 0-3.51.383c-9.657 1.457-17.028 6.351-20.367 21.68-1.277 5.83-1.957 13.182-1.968 22.426v-44.5H75.9zM50.045 5.5V50H24.2a45 45 0 0 0 3.51-.383c9.657-1.457 17.027-6.351 20.367-21.68 1.276-5.83 1.957-13.182 1.968-22.426z"/></g></g><defs><clipPath id="a"><path fill="#fff" d="M0 0h100v100H0z"/></clipPath><clipPath id="b"><path fill="#fff" d="M24.2 5.5h51.7v89H24.2z"/></clipPath></defs></svg>