<svg width="180" height="181" viewBox="0 0 180 181" fill="none" xmlns="http://www.w3.org/2000/svg">
<g clip-path="url(#clip0_834_12900)">
<path d="M0.916168 90.496C0.916168 40.7966 40.8016 0.5 89.9939 0.5C139.194 0.5 179.079 40.7966 179.079 90.496C179.079 140.203 139.194 180.492 89.9939 180.492C40.8016 180.5 0.916168 140.203 0.916168 90.496Z" fill="#BAF6AE"/>
<path d="M130.86 145.934H92.8291V137.202C82.7451 144.479 73.9576 147.39 65.17 147.39C47.4509 147.39 32.4689 131.234 32.4689 108.966C32.4689 77.82 56.2384 58.6084 92.541 58.6084C92.6851 58.6084 92.6851 58.6084 92.8291 58.6084V39.6878L130.86 28.3354V145.934ZM71.0764 97.7594C71.0764 116.534 79.7199 128.615 92.8291 130.652V74.0359L82.8891 66.1766C76.1184 72.726 71.0764 83.2051 71.0764 97.7594Z" fill="#191919"/>
</g>
<defs>
<clipPath id="clip0_834_12900">
<rect width="178.163" height="180" fill="white" transform="translate(0.918365 0.5)"/>
</clipPath>
</defs>
</svg>
