<svg xmlns="http://www.w3.org/2000/svg" width="180" height="181" fill="none" viewBox="0 0 180 181"><g clip-path="url(#a)"><path fill="#baf6ae" d="M.916 90.496C.916 40.796 40.802.5 89.994.5c49.2 0 89.085 40.297 89.085 89.996 0 49.707-39.885 89.996-89.085 89.996C40.802 180.5.916 140.203.916 90.496"/><path fill="#191919" d="M130.86 145.934H92.83v-8.732c-10.085 7.277-18.872 10.188-27.66 10.188-17.72 0-32.701-16.156-32.701-38.424 0-31.146 23.77-50.358 60.072-50.358h.288v-18.92l38.031-11.353zM71.076 97.759c0 18.775 8.644 30.856 21.753 32.893V74.036l-9.94-7.86c-6.77 6.55-11.813 17.03-11.813 31.583"/></g><defs><clipPath id="a"><path fill="#fff" d="M.918.5h178.163v180H.918z"/></clipPath></defs></svg>