<svg xmlns="http://www.w3.org/2000/svg" width="64" height="64" fill="none" viewBox="0 0 64 64"><rect width="64" height="64" fill="#0b1020" rx="16"/><path fill="#f97316" d="M43 18c-8.284 0-15 6.716-15 15s6.716 15 15 15c4.166 0 7.947-1.687 10.666-4.416l-5.372-5.372c-1.292 1.302-3.076 2.1-5.294 2.1A8.256 8.256 0 0 1 34.688 32 8.256 8.256 0 0 1 43 23.688c2.218 0 4.002.798 5.294 2.1l5.372-5.372C50.947 17.687 47.166 18 43 18"/><path fill="#38bdf8" d="M18 23h6l4.5 10L24 43h-6l4.5-10z"/><path fill="#f8fafc" d="M24 18h6l4.5 10L30 38h-6l4.5-10z" opacity=".95"/></svg>