<svg width="64" height="64" viewBox="0 0 64 64" fill="none" xmlns="http://www.w3.org/2000/svg">
  <rect width="64" height="64" rx="16" fill="#ECFEFF"/>
  <path d="M22 18C17.582 18 14 21.582 14 26V38C14 42.418 17.582 46 22 46C26.418 46 30 42.418 30 38V26C30 24.8954 30.8954 24 32 24C33.1046 24 34 24.8954 34 26V38C34 42.418 37.582 46 42 46C46.418 46 50 42.418 50 38V26C50 21.582 46.418 18 42 18C37.582 18 34 21.582 34 26V30C34 31.1046 33.1046 32 32 32C30.8954 32 30 31.1046 30 30V26C30 21.582 26.418 18 22 18Z" stroke="#00AEE9" stroke-width="4.5" stroke-linecap="round" stroke-linejoin="round"/>
</svg>
